<svg width="18" height="15" viewBox="0 0 18 15" fill="none" xmlns="http://www.w3.org/2000/svg">
<path d="M6.01402 0.28125H10.4597L15.9921 15H11.3586L10.6296 12.8387H5.57571L4.8467 15H0.503906L6.01402 0.28125ZM6.55519 9.87468H9.64568L8.70646 6.99003C8.47836 6.27108 8.14292 5.09781 8.14292 5.09781H8.10267C8.10267 5.09781 7.7896 6.27108 7.53914 6.99003L6.55966 9.87468H6.55519Z" fill="#D4CFC1"/>
<path d="M15.4426 -0.000976562C14.3066 -0.000976562 13.3853 0.907598 13.3853 2.02788C13.3853 3.14816 14.3066 4.05674 15.4426 4.05674C16.5786 4.05674 17.4999 3.14816 17.4999 2.02788C17.4999 0.907598 16.5786 -0.000976562 15.4426 -0.000976562ZM16.3595 3.04231H15.7646C15.7065 3.00261 15.7288 2.75121 15.6886 2.57038C15.6528 2.41601 15.5812 2.33662 15.4068 2.33662H15.1295V3.04231H14.5302V1.01345H15.5499C15.9704 1.01345 16.3281 1.20311 16.3281 1.6177C16.3281 1.85146 16.2074 2.01465 15.9927 2.11168V2.1205C16.1582 2.18225 16.2476 2.29692 16.279 2.4557C16.3326 2.69829 16.2879 2.99379 16.3639 3.01144V3.04231H16.3595Z" fill="#D4CFC1"/>
<path d="M15.4604 1.47609H15.1294V1.90832H15.4514C15.6258 1.90832 15.7198 1.83335 15.7198 1.69221C15.7198 1.55989 15.6348 1.47168 15.4604 1.47168V1.47609Z" fill="#D4CFC1"/>
</svg>
