<svg width="176" height="24" viewBox="0 0 176 24" fill="none" xmlns="http://www.w3.org/2000/svg">
<path d="M0.448478 10.4821C0.504979 9.54508 0.739223 8.76819 1.15121 8.14903C1.5632 7.53105 2.08819 7.03431 2.725 6.65999C3.36182 6.28567 4.07868 6.01847 4.8744 5.85956C5.67013 5.70065 6.47174 5.62061 7.27688 5.62061C8.00786 5.62061 8.74708 5.6724 9.4969 5.77481C10.2455 5.87839 10.9306 6.07968 11.5486 6.37866C12.1666 6.67882 12.6727 7.09552 13.0659 7.62875C13.459 8.16316 13.6556 8.8706 13.6556 9.75107V17.3105C13.6556 17.9661 13.6933 18.5935 13.7686 19.1938C13.8428 19.7942 13.9746 20.2438 14.1618 20.5428H10.1149C10.0395 20.318 9.97834 20.0884 9.93243 19.8542C9.88535 19.6199 9.85239 19.381 9.83473 19.1373C9.19791 19.793 8.4481 20.252 7.58645 20.5145C6.72481 20.777 5.84434 20.9077 4.94503 20.9077C4.25171 20.9077 3.60548 20.8229 3.00633 20.6546C2.40601 20.4863 1.88219 20.2238 1.43254 19.8683C0.982884 19.5128 0.632107 19.0632 0.379028 18.5193C0.12595 17.9767 0 17.3305 0 16.5806C0 15.7567 0.144784 15.0775 0.43553 14.5431C0.726275 14.0087 1.1006 13.5837 1.55967 13.2647C2.01874 12.9469 2.54373 12.708 3.13346 12.5479C3.72319 12.389 4.31763 12.263 4.91795 12.1689C5.5171 12.0747 6.10683 12.0005 6.68832 11.944C7.26864 11.8875 7.78421 11.8039 8.23386 11.6909C8.68352 11.5779 9.03901 11.4143 9.3015 11.1989C9.56399 10.9835 9.68524 10.6692 9.6664 10.2572C9.6664 9.82641 9.59578 9.48387 9.4557 9.23197C9.31563 8.97889 9.12729 8.78231 8.89422 8.64224C8.65998 8.50216 8.38807 8.40799 8.07966 8.36091C7.77008 8.31383 7.43814 8.29028 7.08148 8.29028C6.29517 8.29028 5.67601 8.45861 5.22636 8.79644C4.7767 9.13309 4.51421 9.69575 4.44005 10.4821H0.448478ZM9.6664 13.4331C9.49808 13.5837 9.28738 13.7003 9.0343 13.7838C8.78122 13.8686 8.50931 13.938 8.21974 13.9945C7.92899 14.051 7.6253 14.0981 7.3063 14.1346C6.98731 14.1723 6.66949 14.2194 6.35049 14.2747C6.05033 14.3312 5.75605 14.4054 5.46531 14.4995C5.17456 14.5937 4.92148 14.7196 4.70607 14.8786C4.49066 15.0375 4.31645 15.2399 4.18579 15.4824C4.05396 15.7261 3.98922 16.0356 3.98922 16.41C3.98922 16.7843 4.05513 17.0656 4.18579 17.3093C4.31645 17.5529 4.49537 17.7448 4.7202 17.8849C4.94503 18.025 5.20752 18.1238 5.50651 18.1803C5.80549 18.2368 6.11507 18.2651 6.43407 18.2651C7.22038 18.2651 7.82894 18.1344 8.26094 17.8719C8.69176 17.6094 9.00958 17.2963 9.21675 16.9303C9.42274 16.5653 9.54869 16.1957 9.59578 15.8202C9.64286 15.4459 9.6664 15.1458 9.6664 14.9209V13.4319V13.4331Z" fill="#101010"/>
<path d="M37.432 0.477539L42.1251 14.2768H42.1816L46.6217 0.477539H52.8321V20.5437H48.7005V6.32305H48.644L43.726 20.5437H40.3253L35.4074 6.46431H35.3509V20.5437H31.2192V0.477539H37.4297H37.432Z" fill="#101010"/>
<path d="M56.5143 6.42112C56.964 5.13807 57.6102 4.01864 58.453 3.06283C59.2958 2.10702 60.3305 1.35838 61.5582 0.814558C62.7848 0.271912 64.1667 0 65.704 0C67.2413 0 68.6456 0.271912 69.8639 0.814558C71.081 1.35838 72.1122 2.10702 72.955 3.06283C73.7978 4.01864 74.444 5.13807 74.8937 6.42112C75.3433 7.70417 75.5682 9.09551 75.5682 10.594C75.5682 12.0924 75.3433 13.4178 74.8937 14.6832C74.444 15.9474 73.7978 17.0492 72.955 17.985C72.1122 18.922 71.081 19.6577 69.8639 20.1909C68.6456 20.7253 67.259 20.9914 65.704 20.9914C64.149 20.9914 62.7859 20.7241 61.5582 20.1909C60.3305 19.6565 59.2958 18.922 58.453 17.985C57.6102 17.048 56.964 15.9474 56.5143 14.6832C56.0647 13.419 55.8398 12.0559 55.8398 10.594C55.8398 9.132 56.0647 7.70417 56.5143 6.42112ZM60.5471 13.0529C60.7437 13.8498 61.058 14.5655 61.4888 15.2023C61.9196 15.8392 62.4811 16.35 63.1744 16.7338C63.8677 17.1175 64.7105 17.3094 65.704 17.3094C66.6975 17.3094 67.5403 17.1175 68.2336 16.7338C68.9269 16.35 69.4884 15.8392 69.9192 15.2023C70.35 14.5655 70.6643 13.8487 70.8609 13.0529C71.0575 12.2572 71.1564 11.4368 71.1564 10.594C71.1564 9.75116 71.0587 8.86126 70.8609 8.03611C70.6643 7.21214 70.35 6.47644 69.9192 5.83021C69.4884 5.18398 68.9257 4.66841 68.2336 4.28467C67.5403 3.90093 66.6975 3.70906 65.704 3.70906C64.7105 3.70906 63.8677 3.90093 63.1744 4.28467C62.4811 4.66841 61.9184 5.18398 61.4888 5.83021C61.058 6.47644 60.7437 7.21214 60.5471 8.03611C60.3505 8.86126 60.2516 9.71349 60.2516 10.594C60.2516 11.4744 60.3505 12.2572 60.5471 13.0529Z" fill="#101010"/>
<path d="M77.0017 4.1866V0.477539H93.4424V4.1866H87.4285V20.5437H83.0167V4.1866H77.0029H77.0017Z" fill="#101010"/>
<path d="M100.158 0.477539V8.17818H108.28V0.477539H112.692V20.5437H108.28V11.8872H100.158V20.5425H95.7461V0.477539H100.158Z" fill="#101010"/>
<path d="M131.577 0.477539V4.1866H120.982V8.48658H130.706V11.9155H120.982V16.8334H131.802V20.5437H116.57V0.477539H131.577Z" fill="#101010"/>
<path d="M145.601 0.477539C146.5 0.477539 147.31 0.622323 148.032 0.913069C148.753 1.20381 149.371 1.60168 149.887 2.10783C150.402 2.61399 150.796 3.19901 151.068 3.86408C151.338 4.52914 151.475 5.246 151.475 6.01347C151.475 7.19411 151.226 8.21466 150.73 9.07631C150.233 9.93795 149.423 10.5936 148.299 11.0433V11.0998C148.842 11.2504 149.291 11.4788 149.648 11.7884C150.003 12.0979 150.294 12.4628 150.519 12.8842C150.744 13.3057 150.907 13.7694 151.011 14.2756C151.113 14.7817 151.184 15.2867 151.222 15.7929C151.241 16.1119 151.259 16.4862 151.278 16.917C151.297 17.3478 151.33 17.7881 151.377 18.2377C151.424 18.6874 151.498 19.1135 151.602 19.5161C151.704 19.9186 151.86 20.2612 152.066 20.5413H147.654C147.41 19.9045 147.261 19.1453 147.204 18.2648C147.148 17.3843 147.064 16.5415 146.951 15.7352C146.801 14.6864 146.483 13.9177 145.995 13.4304C145.508 12.9431 144.712 12.6994 143.607 12.6994H139.195V20.5402H134.783V0.477539H145.603H145.601ZM144.027 9.55539C145.04 9.55539 145.798 9.33056 146.304 8.88091C146.81 8.43125 147.063 7.70027 147.063 6.68913C147.063 5.678 146.81 5.00822 146.304 4.56681C145.798 4.12657 145.04 3.90645 144.027 3.90645H139.194V9.55539H144.027Z" fill="#101010"/>
<path d="M154.467 6.15509C155.057 4.86263 155.849 3.76203 156.841 2.85331C157.834 1.94458 158.981 1.24185 160.284 0.745109C161.586 0.24837 162.949 0 164.374 0C165.798 0 167.16 0.24837 168.463 0.745109C169.765 1.24185 170.913 1.94458 171.906 2.85331C172.9 3.76203 173.691 4.86263 174.28 6.15509C174.87 7.44756 175.165 8.89069 175.165 10.4833C175.165 12.0759 174.87 13.5461 174.28 14.8398C173.691 16.1323 172.898 17.2387 171.906 18.1557C170.913 19.0738 169.765 19.7766 168.463 20.2639C167.161 20.7512 165.798 20.9949 164.374 20.9949C162.949 20.9949 161.586 20.7512 160.284 20.2639C158.981 19.7766 157.835 19.0738 156.841 18.1557C155.848 17.2376 155.057 16.1323 154.467 14.8398C153.877 13.5473 153.582 12.0948 153.582 10.4833C153.582 8.87186 153.877 7.44756 154.467 6.15509ZM157.066 13.7992C157.478 14.8115 158.04 15.6873 158.752 16.4265C159.464 17.1669 160.302 17.7425 161.267 18.1545C162.233 18.5665 163.267 18.7725 164.373 18.7725C165.478 18.7725 166.484 18.5665 167.45 18.1545C168.415 17.7425 169.253 17.1669 169.965 16.4265C170.677 15.6861 171.243 14.8104 171.665 13.7992C172.086 12.7881 172.297 11.6828 172.297 10.4833C172.297 9.28384 172.086 8.18325 171.665 7.18153C171.243 6.17981 170.676 5.31228 169.965 4.58248C169.253 3.85149 168.415 3.2806 167.45 2.86861C166.484 2.45662 165.459 2.25063 164.373 2.25063C163.286 2.25063 162.231 2.45662 161.267 2.86861C160.302 3.2806 159.464 3.85267 158.752 4.58248C158.04 5.31346 157.477 6.17981 157.066 7.18153C156.654 8.18443 156.448 9.28502 156.448 10.4833C156.448 11.6816 156.654 12.7881 157.066 13.7992ZM164.626 4.5813C166.105 4.5813 167.244 4.8438 168.04 5.36761C168.836 5.8926 169.235 6.79191 169.235 8.06554C169.235 8.60936 169.155 9.07314 168.996 9.45688C168.837 9.84062 168.617 10.1549 168.336 10.3986C168.055 10.6422 167.727 10.8294 167.352 10.96C166.976 11.0919 166.574 11.1755 166.143 11.2131L169.291 16.3559H166.846L163.979 11.3249H162.517V16.3559H160.184V4.5813H164.624H164.626ZM164.597 9.49925C165.272 9.49925 165.824 9.40509 166.256 9.21793C166.687 9.03077 166.902 8.58111 166.902 7.86896C166.902 7.55114 166.827 7.29806 166.677 7.10973C166.527 6.92257 166.335 6.77778 166.101 6.6742C165.866 6.57179 165.604 6.50116 165.314 6.4635C165.024 6.42583 164.747 6.40699 164.486 6.40699H162.519V9.49808H164.599L164.597 9.49925Z" fill="#101010"/>
<path d="M30.3505 20.7124H14.9221V24.0001H30.3505V20.7124Z" fill="#101010"/>
</svg>
