<svg width="1058" height="595" viewBox="0 0 1058 595" fill="none" xmlns="http://www.w3.org/2000/svg">
<path d="M947.54 8.81445H1053.76V57.6782H1011.24L1011.24 217.086H1051.04V277.663H1011.24V492.247H1058V585.794H947.54V8.81445Z" fill="#D4CFC1"/>
<path d="M931.269 9.40039L898.917 585.792H802.314L765.578 9.40039H832.701C840.461 76.6744 846.005 465.725 849.33 512.183C852.656 465.222 856.133 91.3058 859.762 54.8028L864.146 9.40039H931.269Z" fill="#D4CFC1"/>
<path d="M742.611 8.81445V585.794H679.155V8.81445H742.611Z" fill="#D4CFC1"/>
<path d="M655.995 8.81445L655.999 586.382H592.627L592.628 327.003H573.662L573.661 586.382H510.289L510.285 8.81445H573.657L573.663 271.538H592.63L592.623 8.81445H655.995Z" fill="#D4CFC1"/>
<path d="M484.284 281.485H420.89V69.0043C420.89 56.6498 420.187 48.9659 418.782 45.9526C417.477 42.8389 414.515 41.282 409.898 41.282C404.678 41.282 401.365 43.1402 399.959 46.8566C398.554 50.573 397.851 58.6084 397.851 70.9629V191.395C397.851 203.247 398.555 544.285 399.961 547.901C401.366 551.516 404.528 553.324 409.447 553.324C414.166 553.324 417.227 551.516 418.633 547.901C420.139 544.285 420.89 344.112 420.89 330.753V300.168H484.284V309.66C484.284 334.871 482.479 544.435 478.865 554.982C475.351 565.528 467.471 574.769 455.224 582.704C443.077 590.639 428.069 594.606 410.2 594.606C391.629 594.606 376.32 591.241 364.274 584.512C352.227 577.782 344.246 568.491 340.331 556.639C336.416 544.686 334.457 193.454 334.457 169.548V91.1519C334.457 73.5744 335.06 60.4164 336.264 51.6779C337.469 42.8389 341.033 34.3515 346.955 26.2156C352.979 18.0797 361.26 11.7016 371.801 7.08123C382.442 2.36041 394.639 0 408.392 0C427.064 0 442.473 3.61595 454.62 10.8478C466.767 18.0797 474.747 27.1196 478.562 37.9674C482.377 48.7148 484.284 65.4888 484.284 88.2893V281.485Z" fill="#D4CFC1"/>
<path d="M175.906 8.81445H220.797C250.724 8.81445 270.96 9.97102 281.504 12.2841C292.15 14.5972 300.786 20.5309 307.414 30.0851C314.143 39.5386 317.507 54.6744 317.507 75.4925C317.507 94.5002 315.147 213.941 310.427 220.478C305.707 227.015 296.418 230.937 282.559 232.244C295.112 235.362 303.548 239.536 307.866 244.765C312.185 249.995 314.846 254.822 315.85 259.247C316.955 263.572 317.507 275.59 317.507 295.302V586.382H258.607V278.557C258.607 265.483 257.553 257.387 255.444 254.269C253.435 251.152 248.062 249.593 239.325 249.593V586.382H175.906V8.81445ZM239.325 50.6014V211.577C246.456 211.577 251.427 210.622 254.239 208.711C257.151 206.7 258.607 93.6454 258.607 82.8844V69.4583C258.607 61.7144 257.201 56.6356 254.389 54.2219C251.678 51.8082 246.657 50.6014 239.325 50.6014Z" fill="#D4CFC1"/>
<path d="M124.071 8.22852L160.403 586.383H95.4275L92.2617 540.412H69.4978L65.7289 586.383H0L32.2614 8.22852H124.071ZM90.4526 492.191C87.2365 464.576 84.0204 103.324 80.8043 62.7553C74.3722 109.349 70.352 470.601 68.744 492.191H90.4526Z" fill="#D4CFC1"/>
</svg>
