<svg width="200" height="100" viewBox="0 0 200 100" fill="none" xmlns="http://www.w3.org/2000/svg">
<path d="M32.4675 100C26.2699 100 20.7891 98.9873 16.025 96.962C11.3031 94.8945 7.59302 91.7722 4.89478 87.5949C2.19653 83.4177 0.847412 78.1013 0.847412 71.6456C0.847412 66.3291 1.75385 61.7932 3.56674 58.038C5.37962 54.2405 7.90922 51.1392 11.1555 48.7342C14.4019 46.3291 18.1752 44.4937 22.4755 43.2278C26.818 41.962 31.4978 41.1392 36.5148 40.7595C41.9535 40.3375 46.317 39.8312 49.6055 39.2405C52.9362 38.6076 55.3393 37.7426 56.8149 36.6456C58.2905 35.5063 59.0283 34.0084 59.0283 32.1519V31.8987C59.0283 29.3671 58.0586 27.4262 56.1192 26.0759C54.1799 24.7257 51.6924 24.0506 48.6569 24.0506C45.3263 24.0506 42.6069 24.789 40.4989 26.2658C38.4331 27.7004 37.1894 29.9156 36.7678 32.9114H4.64182C5.06342 27.0042 6.93954 21.5612 10.2702 16.5823C13.643 11.5612 18.5546 7.55274 25.0051 4.55696C31.4556 1.51899 39.5082 0 49.1628 0C56.1193 0 62.3589 0.822784 67.8819 2.46835C73.4049 4.07173 78.1057 6.32911 81.9844 9.2405C85.8632 12.1097 88.8144 15.4852 90.8381 19.3671C92.9039 23.2067 93.9368 27.384 93.9368 31.8987V98.481H61.3049V84.8101H60.5461C58.6067 88.4388 56.2457 91.3713 53.4632 93.6076C50.7228 95.8439 47.5818 97.4684 44.0404 98.481C40.5411 99.4937 36.6835 100 32.4675 100ZM43.8507 77.9747C46.5068 77.9747 48.9942 77.4262 51.313 76.3291C53.674 75.2321 55.5922 73.6498 57.0679 71.5823C58.5435 69.5148 59.2813 67.0042 59.2813 64.0506V55.9494C58.3537 56.3291 57.363 56.6878 56.309 57.0253C55.2971 57.3629 54.201 57.6793 53.0205 57.9747C51.8822 58.27 50.6595 58.5443 49.3526 58.7975C48.0878 59.0506 46.7597 59.2827 45.3684 59.4937C42.6702 59.9156 40.4568 60.6118 38.7282 61.5823C37.0418 62.5105 35.777 63.6709 34.9338 65.0633C34.1328 66.4135 33.7323 67.9325 33.7323 69.6202C33.7323 72.3207 34.6809 74.3882 36.5781 75.8228C38.4753 77.2574 40.8995 77.9747 43.8507 77.9747Z" fill="#D4CFC1"/>
<path d="M137.683 100C131.486 100 126.005 98.9873 121.241 96.962C116.519 94.8945 112.809 91.7722 110.11 87.5949C107.412 83.4177 106.063 78.1013 106.063 71.6456C106.063 66.3291 106.97 61.7932 108.782 58.038C110.595 54.2405 113.125 51.1392 116.371 48.7342C119.618 46.3291 123.391 44.4937 127.691 43.2278C132.034 41.962 136.713 41.1392 141.731 40.7595C147.169 40.3375 151.533 39.8312 154.821 39.2405C158.152 38.6076 160.555 37.7426 162.031 36.6456C163.506 35.5063 164.244 34.0084 164.244 32.1519V31.8987C164.244 29.3671 163.274 27.4262 161.335 26.0759C159.396 24.7257 156.908 24.0506 153.873 24.0506C150.542 24.0506 147.823 24.789 145.715 26.2658C143.649 27.7004 142.405 29.9156 141.983 32.9114H109.857C110.279 27.0042 112.155 21.5612 115.486 16.5823C118.859 11.5612 123.77 7.55274 130.221 4.55696C136.671 1.51899 144.724 0 154.379 0C161.335 0 167.575 0.822784 173.098 2.46835C178.621 4.07173 183.321 6.32911 187.2 9.2405C191.079 12.1097 194.03 15.4852 196.054 19.3671C198.12 23.2067 199.153 27.384 199.153 31.8987V98.481H166.521V84.8101H165.762C163.822 88.4388 161.461 91.3713 158.679 93.6076C155.938 95.8439 152.798 97.4684 149.256 98.481C145.757 99.4937 141.899 100 137.683 100ZM149.066 77.9747C151.722 77.9747 154.21 77.4262 156.529 76.3291C158.89 75.2321 160.808 73.6498 162.284 71.5823C163.759 69.5148 164.497 67.0042 164.497 64.0506V55.9494C163.569 56.3291 162.579 56.6878 161.525 57.0253C160.513 57.3629 159.417 57.6793 158.236 57.9747C157.098 58.27 155.875 58.5443 154.568 58.7975C153.303 59.0506 151.975 59.2827 150.584 59.4937C147.886 59.9156 145.672 60.6118 143.944 61.5823C142.258 62.5105 140.993 63.6709 140.149 65.0633C139.348 66.4135 138.948 67.9325 138.948 69.6202C138.948 72.3207 139.897 74.3882 141.794 75.8228C143.691 77.2574 146.115 77.9747 149.066 77.9747Z" fill="#D4CFC1"/>
</svg>
