<svg width="444" height="24" viewBox="0 0 444 24" fill="none" xmlns="http://www.w3.org/2000/svg">
<path d="M102.817 0.414062H109.775L118.433 23.4477H111.182L110.041 20.0655H102.131L100.99 23.4477H94.1938L102.817 0.414062ZM103.664 15.427H108.501L107.031 10.9128C106.674 9.78766 106.149 7.95159 106.149 7.95159H106.086C106.086 7.95159 105.596 9.78766 105.204 10.9128L103.671 15.427H103.664Z" fill="#D4CFC1"/>
<path d="M119.712 0.414062H131.31C136.077 0.414062 140.13 2.57455 140.13 7.27515C140.13 9.91881 138.758 11.7894 136.308 12.88V12.9766C138.205 13.6876 139.185 14.9714 139.577 16.7799C140.2 19.5478 139.675 22.8679 140.522 23.0957V23.4477H133.788C133.137 22.999 133.396 20.1621 132.906 18.0983C132.479 16.3243 131.695 15.427 129.707 15.427H126.537V23.4477H119.705V0.414062H119.712ZM126.544 10.6298H130.204C132.164 10.6298 133.242 9.79456 133.242 8.17938C133.242 6.66773 132.262 5.70138 130.302 5.70138H126.544V10.6298Z" fill="#D4CFC1"/>
<path d="M142.289 0.414062H151.178L154.769 13.301H154.832L158.43 0.414062H167.382V23.4546H161.209V9.02148H161.146L157.261 23.4546H152.263L148.379 9.02148H148.316V23.4546H142.303V0.414062H142.289Z" fill="#D4CFC1"/>
<path d="M169.28 12.0173C169.28 5.12166 173.851 0 181.109 0C188.368 0 193.002 5.12166 193.002 12.0173C193.002 18.9129 188.361 24 181.109 24C173.858 24 169.28 18.906 169.28 12.0173ZM186.072 12.0173C186.072 8.24849 184.406 5.37705 181.137 5.37705C177.869 5.37705 176.203 8.24159 176.203 12.0173C176.203 15.7929 177.869 18.623 181.137 18.623C184.406 18.623 186.072 15.786 186.072 12.0173Z" fill="#D4CFC1"/>
<path d="M194.896 0.414062H201.728L209.371 13.3632H209.434V0.414062H216.035V23.4546H208.979L201.56 10.4089H201.497V23.4546H194.896V0.414062Z" fill="#D4CFC1"/>
<path d="M218.843 0.414062H225.674V23.4546H218.843V0.414062Z" fill="#D4CFC1"/>
<path d="M235.573 0.414062H242.53L251.188 23.4477H243.937L242.796 20.0655H234.887L233.746 23.4477H226.949L235.573 0.414062ZM236.42 15.427H241.256L239.786 10.9128C239.429 9.78766 238.904 7.95159 238.904 7.95159H238.841C238.841 7.95159 238.351 9.78766 237.959 10.9128L236.427 15.427H236.42Z" fill="#D4CFC1"/>
<path d="M425.005 0.451172H432.118L440.97 24.0008H433.556L432.39 20.5428H424.303L423.137 24.0008H416.188L425.005 0.451172ZM425.87 15.8004H430.815L429.312 11.1851C428.948 10.0347 428.411 8.15755 428.411 8.15755H428.346C428.346 8.15755 427.846 10.0347 427.445 11.1851L425.878 15.8004H425.87Z" fill="#D4CFC1"/>
<path d="M440.091 0C438.273 0 436.799 1.4537 436.799 3.24612C436.799 5.03854 438.273 6.49224 440.091 6.49224C441.908 6.49224 443.382 5.03854 443.382 3.24612C443.382 1.4537 441.908 0 440.091 0ZM441.558 4.86918H440.606C440.513 4.80567 440.549 4.40343 440.484 4.1141C440.427 3.86712 440.312 3.74009 440.033 3.74009H439.59V4.86918H438.631V1.62306H440.262C440.935 1.62306 441.507 1.9265 441.507 2.58984C441.507 2.96385 441.314 3.22495 440.971 3.3802V3.39431C441.236 3.49311 441.379 3.67658 441.429 3.93063C441.515 4.31875 441.443 4.79155 441.565 4.81978V4.86918H441.558Z" fill="#D4CFC1"/>
<path d="M440.119 2.36448H439.589V3.05604H440.105C440.384 3.05604 440.534 2.93608 440.534 2.71026C440.534 2.49856 440.398 2.35742 440.119 2.35742V2.36448Z" fill="#D4CFC1"/>
</svg>
