<svg width="99" height="15" viewBox="0 0 99 15" fill="none" xmlns="http://www.w3.org/2000/svg">
<path d="M5.38963 0.257812H9.73808L15.1496 14.6538H10.6174L9.90432 12.54H4.96091L4.24783 14.6538H0L5.38963 0.257812ZM5.91897 9.6409H8.94189L8.0232 6.8195C7.80009 6.11631 7.47199 4.96877 7.47199 4.96877H7.43262C7.43262 4.96877 7.12639 6.11631 6.8814 6.8195L5.92334 9.6409H5.91897Z" fill="#D4CFC1"/>
<path d="M15.9487 0.257812H23.1976C26.1768 0.257812 28.7097 1.60811 28.7097 4.54599C28.7097 6.19828 27.8523 7.36739 26.3211 8.04901V8.10941C27.5067 8.55376 28.1191 9.35617 28.3641 10.4865C28.7535 12.2164 28.4254 14.2915 28.9547 14.4338V14.6538H24.7462C24.3394 14.3734 24.5013 12.6003 24.195 11.3104C23.9282 10.2017 23.4382 9.6409 22.1958 9.6409H20.214V14.6538H15.9443V0.257812H15.9487ZM20.2184 6.64263H22.5064C23.7313 6.64263 24.405 6.12062 24.405 5.11113C24.405 4.16635 23.7925 3.56239 22.5676 3.56239H20.2184V6.64263Z" fill="#D4CFC1"/>
<path d="M30.0596 0.257812H35.6154L37.8597 8.31217H37.899L40.1476 0.257812H45.7429V14.6582H41.8844V5.63745H41.845L39.4171 14.6582H36.2935L33.8656 5.63745H33.8262V14.6582H30.0683V0.257812H30.0596Z" fill="#D4CFC1"/>
<path d="M46.9287 7.50981C46.9287 3.20006 49.7854 -0.000976562 54.322 -0.000976562C58.8585 -0.000976562 61.7546 3.20006 61.7546 7.50981C61.7546 11.8196 58.8541 14.999 54.322 14.999C49.7898 14.999 46.9287 11.8152 46.9287 7.50981ZM57.4236 7.50981C57.4236 5.15433 56.3824 3.35968 54.3395 3.35968C52.2965 3.35968 51.2553 5.15002 51.2553 7.50981C51.2553 9.8696 52.2965 11.6384 54.3395 11.6384C56.3824 11.6384 57.4236 9.86529 57.4236 7.50981Z" fill="#D4CFC1"/>
<path d="M62.939 0.257812H67.2087L71.9858 8.351H72.0252V0.257812H76.1506V14.6582H71.7409L67.1037 6.50458H67.0643V14.6582H62.939V0.257812Z" fill="#D4CFC1"/>
<path d="M77.9058 0.257812H82.1755V14.6582H77.9058V0.257812Z" fill="#D4CFC1"/>
<path d="M88.3618 0.257812H92.7102L98.1217 14.6538H93.5896L92.8765 12.54H87.9331L87.22 14.6538H82.9722L88.3618 0.257812ZM88.8911 9.6409H91.9141L90.9954 6.8195C90.7723 6.11631 90.4442 4.96877 90.4442 4.96877H90.4048C90.4048 4.96877 90.0986 6.11631 89.8536 6.8195L88.8955 9.6409H88.8911Z" fill="#D4CFC1"/>
</svg>
