<svg width="1221" height="193" viewBox="0 0 1221 193" fill="none" xmlns="http://www.w3.org/2000/svg">
<path d="M1221 0L1195.1 115.163V189.981H1160.65V116.44L1132.17 0H1166.61L1178.27 67.4125L1189.92 0H1221Z" fill="#D4CFC1"/>
<path d="M1046.76 0H1130.42V33.4509H1105.81V189.981H1071.37V33.4509H1046.76V0Z" fill="#D4CFC1"/>
<path d="M1040.31 0V189.981H1005.87V0H1040.31Z" fill="#D4CFC1"/>
<path d="M928.222 0H962.668V155.764H999.186V189.981H928.222V0Z" fill="#D4CFC1"/>
<path d="M890.998 189.981L887.372 158.062H866.653L863.545 189.981H832.984L857.329 0H898.25L924.408 189.981H890.998ZM876.754 60.2627L870.02 125.377H884.005L876.754 60.2627Z" fill="#D4CFC1"/>
<path d="M755.982 0H827.982V33.4509H790.428V74.8176H819.953V109.035H790.428V155.764H829.795V189.981H755.982V0Z" fill="#D4CFC1"/>
<path d="M695.836 29.3653V77.3711H702.57C709.303 77.3711 712.152 74.8176 712.152 65.8804V40.09C712.152 31.9188 710.598 29.3653 703.606 29.3653H695.836ZM695.836 108.779V189.981H661.39V0H715.778C736.757 0 747.375 11.4908 747.375 31.6634V62.0501C747.375 77.3711 738.569 85.0316 732.095 87.5852C737.792 89.628 746.857 95.7564 746.857 110.056V174.66C746.857 182.831 748.411 186.406 749.706 188.704V189.981H715.26C713.706 187.938 712.152 183.852 712.152 175.426V120.015C712.152 111.333 710.08 108.779 703.088 108.779H695.836Z" fill="#D4CFC1"/>
<path d="M538.976 189.981V0H587.925C613.565 0 625.479 11.7461 625.479 40.6007V147.848C625.479 174.915 616.155 189.981 587.925 189.981H538.976ZM573.422 30.1313V158.317H580.155C587.925 158.317 590.256 154.232 590.256 145.039V42.8988C590.256 33.7062 587.666 30.1313 581.191 30.1313H573.422Z" fill="#D4CFC1"/>
<path d="M458.547 0H530.546V33.4509H492.993V74.8176H522.518V109.035H492.993V155.764H532.359V189.981H458.547V0Z" fill="#D4CFC1"/>
<path d="M398.4 29.3653V77.3711H405.134C411.868 77.3711 414.716 74.8176 414.716 65.8804V40.09C414.716 31.9188 413.163 29.3653 406.17 29.3653H398.4ZM398.4 108.779V189.981H363.954V0H418.342C439.321 0 449.939 11.4908 449.939 31.6634V62.0501C449.939 77.3711 441.134 85.0316 434.659 87.5852C440.357 89.628 449.421 95.7564 449.421 110.056V174.66C449.421 182.831 450.975 186.406 452.27 188.704V189.981H417.824C416.27 187.938 414.716 183.852 414.716 175.426V120.015C414.716 111.333 412.645 108.779 405.652 108.779H398.4Z" fill="#D4CFC1"/>
<path d="M303.807 29.3653V77.3711H310.541C317.275 77.3711 320.124 74.8176 320.124 65.8804V40.09C320.124 31.9188 318.57 29.3653 311.577 29.3653H303.807ZM303.807 108.779V189.981H269.361V0H323.75C344.728 0 355.347 11.4908 355.347 31.6634V62.0501C355.347 77.3711 346.541 85.0316 340.066 87.5852C345.764 89.628 354.829 95.7564 354.829 110.056V174.66C354.829 182.831 356.383 186.406 357.678 188.704V189.981H323.232C321.678 187.938 320.124 183.852 320.124 175.426V120.015C320.124 111.333 318.052 108.779 311.059 108.779H303.807Z" fill="#D4CFC1"/>
<path d="M171.981 145.805V0H207.462V147.082C207.462 154.487 210.052 158.828 216.009 158.828C221.966 158.828 224.297 154.487 224.297 147.082V0H259.779V145.805C259.779 176.958 244.239 192.789 219.894 192.789H211.347C186.225 192.789 171.981 176.958 171.981 145.805Z" fill="#D4CFC1"/>
<path d="M96.3631 0H130.809V155.764H167.327V189.981H96.3631V0Z" fill="#D4CFC1"/>
<path d="M0 189.981V0H52.0573C75.1076 0 85.4673 8.93725 85.4673 33.9616V59.2413C85.4673 74.8176 76.1436 83.4995 69.1508 85.7977C78.9925 88.3512 88.3162 95.501 88.3162 115.674V147.337C88.3162 177.213 77.6975 189.981 56.7192 189.981H0ZM42.7336 104.949H34.4459V159.849H44.0286C49.7264 159.849 52.8343 158.062 52.8343 147.337V116.44C52.8343 108.524 50.5034 104.949 42.7336 104.949ZM42.7336 29.1099H34.4459V74.3069H42.2156C47.9135 74.3069 51.5393 71.7534 51.5393 63.0715V39.3239C51.5393 32.4295 49.2084 29.1099 42.7336 29.1099Z" fill="#D4CFC1"/>
</svg>
