<svg width="343" height="79" viewBox="0 0 343 79" fill="none" xmlns="http://www.w3.org/2000/svg">
<path fill-rule="evenodd" clip-rule="evenodd" d="M63.9889 15.4629C69.4721 21.8579 72.5451 29.958 72.6955 38.3609C72.7048 38.8819 72.2777 39.301 71.7566 39.2968L17.2615 39.2968C15.1695 39.2968 13.1634 39.7634 11.4037 40.5827C7.21226 42.5342 6.45454 47.8851 8.40293 52.078C11.5601 58.8722 17.07 64.2938 23.9143 67.3408C30.7586 70.3878 38.4745 70.8542 45.6359 68.6537C49.1246 67.5817 52.3669 65.9122 55.2317 63.746C57.7956 61.7749 60.0455 59.4061 61.8903 56.7177C64.9537 52.2533 66.7779 47.4748 67.2094 42.0788H72.4194C71.9157 48.3853 69.7669 54.4495 66.1872 59.6662C66.1302 59.7492 66.0729 59.832 66.0152 59.9145C65.9594 60.0245 65.8941 60.1317 65.819 60.2354L65.7871 60.2794C61.1103 66.8655 54.3538 71.716 46.5783 74.0303C38.2164 76.5192 29.2373 75.908 21.2899 72.309C13.3424 68.7099 6.96013 62.3646 3.31493 54.4382C-0.330275 46.5118 -0.993661 37.5364 1.44659 29.1602C3.7336 21.3101 8.60278 14.48 15.2409 9.76081C15.7976 9.35566 16.3671 8.96552 16.9489 8.59105C24.2972 3.86139 33.1092 1.95168 41.7562 3.21489C50.4032 4.47809 58.3007 8.8288 63.9889 15.4629ZM6.40035 31.6506C5.99207 33.322 6.78422 35.2218 8.50475 35.2218H21.9397C25.033 35.2218 28.065 34.3592 30.695 32.731L43.5417 24.7777C50.3902 20.2536 50.7728 10.265 42.7308 8.62333C42.1615 8.50712 41.5878 8.40666 41.0101 8.32227C33.5969 7.23931 26.0423 8.87653 19.7425 12.9313C13.4427 16.9861 8.82376 23.1844 6.73928 30.3804C6.61712 30.8022 6.50415 31.2256 6.40035 31.6506ZM59.3323 17.9923C59.17 17.8162 58.8873 17.838 58.6875 17.97L44.9796 27.0255L44.9629 27.0359C41.1751 29.3808 42.8369 35.2218 47.2917 35.2218H60.1937C65.1317 35.2218 66.2578 28.8973 63.9525 24.5304C62.8823 22.5031 61.5834 20.5872 60.0704 18.8226C59.829 18.541 59.5829 18.2642 59.3323 17.9923Z" fill="#D4CFC1"/>
<path d="M128.506 0.264648L127.252 4.13534H123.114L126.464 6.54338L125.174 10.4141L128.506 8.00604L131.82 10.4141L130.548 6.50771L133.88 4.15318H129.778L128.506 0.264648Z" fill="#D4CFC1"/>
<path d="M111.488 4.79492L110.234 8.66562H106.114L109.464 11.0737L108.174 14.9444L111.488 12.5363L114.802 14.9444L113.531 11.038L116.88 8.68346H112.76L111.488 4.79492Z" fill="#D4CFC1"/>
<path d="M145.506 4.79492L144.253 8.66562H140.132L143.482 11.0737L142.192 14.9444L145.506 12.5363L148.838 14.9444L147.567 11.038L150.899 8.68346H146.778L145.506 4.79492Z" fill="#D4CFC1"/>
<path d="M99.0556 17.1924L97.8017 21.0809H93.6636L97.0135 23.489L95.7237 27.3596L99.0556 24.9516L102.37 27.3596L101.098 23.4533L104.43 21.0988H100.328L99.0556 17.1924Z" fill="#D4CFC1"/>
<path d="M157.938 17.1924L156.684 21.0809H152.564L155.914 23.489L154.624 27.3596L157.938 24.9516L161.252 27.3596L159.98 23.4533L163.33 21.0988H159.21L157.938 17.1924Z" fill="#D4CFC1"/>
<path d="M94.4697 34.1025L93.2157 37.9732H89.0776L92.4454 40.3813L91.1556 44.252L94.4697 41.8618L97.7838 44.252L96.5119 40.3634L99.8439 37.9911H95.7416L94.4697 34.1025Z" fill="#D4CFC1"/>
<path d="M162.525 34.1025L161.271 37.9732H157.15L160.5 40.3813L159.21 44.252L162.525 41.8618L165.857 44.252L164.585 40.3634L167.917 37.9911H163.796L162.525 34.1025Z" fill="#D4CFC1"/>
<path d="M157.938 50.9941L156.684 54.8648H152.564L155.914 57.2729L154.624 61.1436L157.938 58.7355L161.252 61.1436L159.98 57.2372L163.33 54.8827H159.21L157.938 50.9941Z" fill="#D4CFC1"/>
<path d="M99.0556 50.9941L97.8017 54.8648H93.6636L97.0135 57.2729L95.7237 61.1436L99.0556 58.7355L102.37 61.1436L101.098 57.2372L104.43 54.8827H100.328L99.0556 50.9941Z" fill="#D4CFC1"/>
<path d="M111.488 63.4443L110.234 67.315H106.114L109.464 69.7231L108.174 73.5938L111.488 71.1857L114.802 73.5938L113.531 69.6874L116.88 67.3329H112.76L111.488 63.4443Z" fill="#D4CFC1"/>
<path d="M145.506 63.4443L144.253 67.315H140.132L143.482 69.7231L142.192 73.5938L145.506 71.1857L148.838 73.5938L147.567 69.6874L150.899 67.3329H146.778L145.506 63.4443Z" fill="#D4CFC1"/>
<path d="M128.506 67.957L127.252 71.8277H123.114L126.464 74.2358L125.174 78.1065L128.506 75.6984L131.82 78.1065L130.548 74.2001L133.88 71.8456H129.778L128.506 67.957Z" fill="#D4CFC1"/>
<path d="M261.968 3.45508H261.278V4.3701H261.95C262.303 4.3701 262.515 4.22933 262.515 3.93019C262.515 3.64864 262.339 3.47267 261.985 3.47267L261.968 3.45508Z" fill="#D4CFC1"/>
<path d="M261.95 0.340942C259.582 0.323345 257.655 2.22378 257.638 4.58173C257.62 6.93968 259.529 8.85772 261.897 8.87531C264.265 8.89291 266.191 6.99247 266.209 4.63452C266.226 2.27657 264.318 0.358538 261.95 0.340942ZM263.805 6.74612H262.568C262.445 6.65814 262.498 6.13024 262.409 5.74311C262.339 5.40877 262.197 5.2504 261.826 5.2504H261.243V6.72852H259.988L260.024 2.45254H262.144C263.028 2.47014 263.752 2.87486 263.752 3.75469C263.752 4.2474 263.487 4.58173 263.045 4.79289C263.399 4.95126 263.576 5.18002 263.646 5.51435C263.752 6.02466 263.646 6.64054 263.805 6.69333V6.76372V6.74612Z" fill="#D4CFC1"/>
<path d="M220.385 19.3806L221.888 14.0841C222.188 13.0107 222.488 11.9549 222.807 10.9167C222.064 10.5471 221.322 10.16 220.615 9.73769L218.053 8.20678L220.969 7.52051C221.994 7.27416 223.019 7.0278 224.026 6.78145C224.362 5.67286 224.68 4.61706 224.998 3.63165L226.129 0.0947266L227.313 3.61406C227.56 4.35311 227.808 5.07458 228.073 5.81364C228.974 5.60248 229.858 5.37372 230.759 5.16256L235.725 3.98359L231.802 7.25656C231.024 7.90764 230.211 8.6291 229.398 9.40335C229.663 10.1072 229.946 10.8287 230.229 11.5325L231.13 13.7849L228.78 13.1514C227.967 12.9227 227.189 12.6939 226.447 12.43C225.669 13.2746 224.857 14.1896 223.991 15.2102L220.403 19.3982L220.385 19.3806Z" fill="#D4CFC1"/>
<path d="M205.205 28.9008L206.389 24.2025C206.724 22.8476 207.078 21.4926 207.414 20.1025C206.601 19.4338 205.77 18.6948 204.922 17.9029L202.925 16.0201L205.682 15.8265C206.601 15.7561 207.537 15.6506 208.509 15.5098C208.845 14.102 209.163 12.6943 209.499 11.269L210.665 6.21875L211.849 11.269C212.114 12.4304 212.397 13.5741 212.68 14.7003C213.493 14.5068 214.323 14.278 215.189 14.0317L219.042 12.9407L216.444 15.9849C215.79 16.7415 215.136 17.5158 214.5 18.2725L213.811 19.0819C214.129 20.2785 214.447 21.4574 214.765 22.5836L215.543 25.3639L213.016 23.9738C212.291 23.569 211.549 23.1291 210.824 22.654C209.958 23.657 209.198 24.5193 208.474 25.3287L205.222 28.9184L205.205 28.9008Z" fill="#D4CFC1"/>
<path d="M235.548 15.9668L237.35 11.2685C237.562 10.7054 237.792 10.1423 238.004 9.59679C237.456 9.47362 236.891 9.33284 236.343 9.19207L231.925 8.10108L236.29 6.85172C237.421 6.53498 238.481 6.25343 239.524 6.00708C239.842 5.32081 240.142 4.66973 240.46 4.07145L241.468 2.06543L242.581 4.01866C242.829 4.44098 243.076 4.8633 243.306 5.30321C244.331 5.14484 245.338 5.03926 246.31 4.96888L252.425 4.52896L246.928 7.23884C246.257 7.57318 245.603 7.92511 244.949 8.31224C245.161 8.71696 245.373 9.12168 245.568 9.52641L246.875 12.1307L244.101 11.1981C243.376 10.9517 242.616 10.723 241.751 10.4942C240.938 11.1277 240.107 11.814 239.276 12.553L235.53 15.9316L235.548 15.9668Z" fill="#D4CFC1"/>
<path d="M204.427 42.3963L201.37 39.6336C200.575 38.9121 199.762 38.1027 198.949 37.2404C198.136 37.6628 197.341 38.0147 196.563 38.2786L194.23 39.0529L195.043 36.7301C195.379 35.7975 195.697 34.8121 196.033 33.8091C195.167 32.7005 194.266 31.5039 193.382 30.237L190.307 25.8202L194.99 28.4949C195.75 28.9348 196.528 29.3044 197.305 29.6211C197.57 28.7061 197.835 27.7559 198.118 26.7704L199.373 22.1953L200.451 26.8056C200.751 28.1078 201.069 29.3923 201.37 30.6417C202.254 30.7473 203.155 30.7649 204.056 30.7297L207.378 30.5889L204.922 32.8237C204.074 33.5979 203.243 34.3018 202.43 34.9177C202.731 36.1143 203.049 37.2756 203.349 38.4018L204.427 42.3787V42.3963Z" fill="#D4CFC1"/>
<path d="M258.522 24.8706L254.811 20.7178C254.051 19.8732 253.273 19.0813 252.478 18.3599C251.753 18.6414 251.029 18.9933 250.304 19.3805L247.3 21.0346L248.608 17.8672C248.873 17.2337 249.138 16.6002 249.403 15.9843C248.731 15.562 248.042 15.1573 247.353 14.8053L243.253 12.7289L247.848 12.5178C248.89 12.465 249.915 12.5178 250.923 12.6234C251.188 12.0779 251.453 11.5324 251.718 11.0045L252.92 8.61133L253.927 11.0925C254.245 11.8667 254.563 12.6762 254.864 13.5208C256.012 13.9079 257.143 14.4358 258.239 15.0517L262.074 17.2337L257.656 17.3041C257.179 17.3041 256.684 17.3393 256.207 17.3921C256.436 18.0783 256.666 18.7998 256.896 19.5388L258.539 24.853L258.522 24.8706Z" fill="#D4CFC1"/>
<path d="M200.557 58.3034L197.058 54.6257C196.156 53.6754 195.255 52.6196 194.371 51.4935C193.488 51.5111 192.587 51.4407 191.721 51.2823L190.148 50.9832L190.872 49.5578C191.173 48.9595 191.473 48.3613 191.756 47.763C190.855 46.3728 189.953 44.8595 189.07 43.2406L184.298 34.5127L191.031 41.8505C191.791 42.6775 192.569 43.4342 193.346 44.0853C193.523 43.6454 193.7 43.1878 193.877 42.7303L195.255 39.1934L196.192 42.8711C196.527 44.1733 196.846 45.4402 197.164 46.6192C198.136 47.0767 199.125 47.4286 200.115 47.6574L203.455 48.414L200.38 49.9098C199.691 50.2441 199.002 50.5256 198.312 50.7544C198.577 51.6694 198.843 52.5669 199.108 53.4291L200.574 58.2858L200.557 58.3034Z" fill="#D4CFC1"/>
<path d="M262.709 44.8252L258.715 38.2089C257.885 36.8364 257.054 35.5694 256.241 34.3904C255.587 34.5312 254.916 34.7424 254.227 35.0239L251.699 36.0621L252.618 33.5106C252.936 32.6484 253.255 31.7861 253.555 30.9591C252.742 30.0089 251.911 29.1466 251.099 28.3724L247.9 25.3458L252.194 26.3136C253.149 26.5247 254.085 26.8415 255.022 27.2286C255.252 26.6831 255.481 26.1552 255.711 25.6273L257.072 22.5127L257.973 25.8033C258.309 26.9998 258.645 28.2844 258.998 29.6041C260.2 30.5016 261.384 31.5926 262.532 32.8419L265.961 36.5548L261.225 34.7776C260.907 34.6544 260.571 34.5488 260.235 34.4608C260.465 35.3934 260.695 36.3437 260.924 37.3115L262.709 44.8252Z" fill="#D4CFC1"/>
<path d="M257.885 57.5834L254.51 53.1842C253.75 52.1988 253.025 51.2838 252.301 50.4391C251.647 50.9319 250.975 51.4949 250.269 52.1108L247.264 54.7855L248.307 50.8967C248.643 49.6121 248.996 48.3627 249.314 47.1838C248.501 46.3743 247.688 45.6353 246.875 44.9666L244.49 42.9782L247.582 42.8374C248.572 42.7846 249.544 42.8198 250.516 42.9254C250.816 41.9224 251.099 40.937 251.4 39.9867L252.672 35.8867L253.732 40.0395C254.05 41.3065 254.368 42.591 254.704 43.8932C255.835 44.2979 256.931 44.8258 258.009 45.4593L260.589 46.9726L257.673 47.6589C257.055 47.7996 256.418 48.0284 255.765 48.3099C256.065 49.5769 256.365 50.8791 256.666 52.1812L257.903 57.5834H257.885Z" fill="#D4CFC1"/>
<path d="M204.569 69.9543L201.388 68.177C200.486 67.6667 199.603 67.1036 198.754 66.4878C197.906 66.7341 197.04 66.9101 196.174 67.0508L193.753 67.438L194.92 65.2912C195.185 64.8161 195.432 64.341 195.679 63.8834C194.849 63.074 194.018 62.1766 193.223 61.2264L188.752 55.8594L194.778 59.4315C195.591 59.9066 196.422 60.3113 197.252 60.6457C197.482 60.1354 197.712 59.6251 197.924 59.1148L199.161 56.2641L200.168 59.2027C200.451 60.0474 200.751 60.8568 201.034 61.6311C201.935 61.7367 202.872 61.7894 203.826 61.7367L208.615 61.5255L204.516 63.9714C203.826 64.3762 203.119 64.7633 202.43 65.0976C202.66 65.6255 202.872 66.1534 203.102 66.6461L204.586 69.9719L204.569 69.9543Z" fill="#D4CFC1"/>
<path d="M204.179 76.7099L206.141 73.3314C206.3 73.0498 206.459 72.7683 206.636 72.4691C206.017 72.2756 205.469 72.082 204.921 71.8708L199.779 69.9528L205.257 69.5305C206.229 69.4601 207.236 69.3369 208.261 69.1609C208.544 68.5099 208.845 67.8236 209.145 67.1197L210.152 64.6914L211.354 67.0318C211.584 67.4717 211.814 67.9116 212.043 68.3515C212.927 68.1227 213.828 67.8588 214.782 67.5597L220.526 65.7472L215.913 69.6185C215.171 70.2519 214.411 70.8326 213.651 71.3957L215.666 75.1614L212.856 74.2992C212.026 74.0528 211.213 73.8065 210.382 73.5777C209.516 74.088 208.615 74.5631 207.714 75.003L204.179 76.6923V76.7099Z" fill="#D4CFC1"/>
<path d="M235.724 72.2226L237.898 63.3187C237.138 62.7908 236.378 62.2981 235.636 61.8582L233.286 60.4856L235.883 59.6762C236.979 59.3419 237.986 59.0427 238.994 58.7788C239.33 57.3886 239.665 55.9985 240.001 54.626L241.132 49.998L242.351 54.6084C242.634 55.6818 242.917 56.7903 243.2 57.9165C244.136 57.7758 245.038 57.6702 245.939 57.5998L249.085 57.3534L246.911 59.641C246.133 60.4504 245.303 61.3479 244.313 62.4565C244.631 63.829 244.967 65.2543 245.285 66.7325L246.169 70.6917L243.27 67.8586C242.581 67.19 241.91 66.5565 241.256 65.9758C240.514 66.838 239.754 67.7003 239.011 68.5449L235.76 72.2402L235.724 72.2226Z" fill="#D4CFC1"/>
<path d="M220.066 78.2755L221.462 74.457C221.727 73.7179 222.01 72.9261 222.293 72.1166C221.674 71.8527 221.038 71.6239 220.366 71.3952L216.673 70.1282L220.437 69.09C221.48 68.8085 222.505 68.5093 223.547 68.2102C223.865 67.2072 224.184 66.1338 224.519 65.0076L225.562 61.4883L226.817 64.9196C227.082 65.6235 227.329 66.3274 227.577 67.0488C228.46 66.8025 229.344 66.5385 230.21 66.3098L234.327 65.166L231.429 68.2806C230.528 69.2484 229.697 70.1106 228.867 70.9201C229.167 71.8879 229.467 72.8733 229.768 73.8587L230.758 77.1669L227.912 75.1961C227.205 74.7034 226.499 74.2458 225.774 73.8235C224.943 74.545 224.131 75.2137 223.318 75.8119L220.048 78.2579L220.066 78.2755Z" fill="#D4CFC1"/>
<path d="M341.46 30.9841C341.46 30.9841 351.167 58.1364 321.841 71.1399C322.965 73.532 327.664 71.9719 327.664 71.9719C327.664 71.9719 322.76 80.6063 314.994 77.2766C324.859 67.5194 304.939 63.9822 309.378 75.6819C304.423 71.4776 300.639 73.3347 298.334 76.4182C298.334 76.4182 303.097 67.5824 293.415 66.6508C298.859 64.7897 297.695 59.6273 297.405 59.2042C297.113 58.7812 309.562 64.5009 311.464 47.9418C310.129 46.2169 306 48.3323 307.009 49.0402C307.009 49.0402 304.016 48.792 298.865 52.2641C308.087 47.2339 308.539 44.7524 291.417 51.2715C291.417 51.2715 293.853 49.8192 309.861 37.6659C315.463 28.9154 302.206 27.6035 304.537 35.2921C304.537 35.2921 302.711 31.7672 297.037 34.4948C297.037 34.4948 301.003 30.9352 295.437 27.2496C301.804 27.5994 300.012 21.5055 300.012 21.5055C307.256 31.4417 322.162 6.40683 299.059 18.7107C280.423 32.4018 284.389 48.1676 284.389 48.1676L284.131 47.3865C284.131 47.3865 274.423 20.2342 303.75 7.23061C302.625 4.83859 297.926 6.39869 297.926 6.39869C297.926 6.39869 302.831 -2.23578 310.597 1.09393C300.731 10.8512 320.652 14.3884 316.213 2.68862C321.167 6.89296 324.951 5.03589 327.257 1.9523C327.257 1.9523 322.494 10.7881 332.175 11.7197C326.731 13.5809 327.896 18.7432 328.186 19.1663C328.477 19.5894 316.029 13.8697 314.127 30.4288C315.461 32.1536 319.591 30.0382 318.582 29.3304C318.582 29.3304 321.575 29.5785 326.725 26.1064C317.503 31.1366 317.052 33.6181 334.173 27.099C334.173 27.099 331.738 28.5514 315.729 40.7047C310.127 49.4551 323.385 50.7671 321.053 43.0784C321.053 43.0784 322.879 46.6034 328.553 43.8758C328.553 43.8758 324.588 47.4353 330.154 51.121C323.787 50.7711 325.579 56.8651 325.579 56.8651C318.334 46.9288 303.428 71.9637 326.532 59.6599C345.172 45.9688 341.204 30.203 341.204 30.203L341.462 30.9841H341.46Z" fill="#D4CFC1"/>
</svg>
