<svg width="436" height="416" viewBox="0 0 436 416" fill="none" xmlns="http://www.w3.org/2000/svg">
<path d="M413.028 17.873H409.363V22.739H412.934C414.813 22.739 415.941 21.9904 415.941 20.3996C415.941 18.9024 415.001 17.9666 413.122 17.9666L413.028 17.873Z" fill="#D4CFC1"/>
<path d="M412.933 1.31021C400.34 1.21664 390.097 11.3228 390.003 23.8618C389.909 36.4009 400.058 46.6006 412.651 46.6942C425.244 46.7877 435.487 36.6816 435.581 24.1426C435.675 11.6035 425.526 1.40379 412.933 1.31021ZM422.801 35.3716H416.222C415.564 34.9037 415.846 32.0964 415.376 30.0378C415.001 28.2599 414.249 27.4177 412.275 27.4177H409.174V35.278H402.502L402.69 12.5392H413.967C418.666 12.6328 422.519 14.785 422.519 19.4638C422.519 22.0839 421.109 23.8618 418.76 24.9847C420.639 25.8269 421.579 27.0434 421.955 28.8213C422.519 31.535 421.955 34.8101 422.801 35.0908V35.4651V35.3716Z" fill="#D4CFC1"/>
<path d="M191.903 102.558L199.891 74.3923C201.488 68.6842 203.086 63.0697 204.778 57.5487C200.831 55.5836 196.884 53.525 193.125 51.2792L179.498 43.1382L195.004 39.4887C200.455 38.1787 205.905 36.8686 211.262 35.5586C213.048 29.6633 214.739 24.0488 216.431 18.8086L222.445 0L228.742 18.715C230.057 22.6452 231.373 26.4818 232.783 30.4119C237.576 29.289 242.274 28.0726 247.067 26.9496L273.475 20.6801L252.612 38.0851C248.477 41.5474 244.154 45.384 239.831 49.5013C241.241 53.2443 242.744 57.0809 244.248 60.8239L249.041 72.8015L236.542 69.4328C232.219 68.2163 228.084 66.9998 224.137 65.5962C220.002 70.0878 215.679 74.9537 211.074 80.3811L191.997 102.652L191.903 102.558Z" fill="#D4CFC1"/>
<path d="M111.173 153.185L117.47 128.2C119.255 120.995 121.135 113.79 122.92 106.397C118.597 102.841 114.181 98.9112 109.67 94.7003L99.0503 84.6878L113.711 83.6585C118.597 83.2841 123.578 82.7227 128.747 81.9741C130.532 74.4881 132.224 67.0021 134.01 59.4225L140.212 32.5664L146.509 59.4225C147.918 65.5984 149.422 71.6808 150.925 77.6696C155.248 76.6403 159.665 75.4238 164.27 74.1138L184.757 68.3121L170.942 84.5006C167.465 88.5244 163.988 92.6417 160.605 96.6654L156.94 100.97C158.632 107.333 160.323 113.603 162.015 119.591L166.15 134.376L152.711 126.984C148.858 124.832 144.911 122.492 141.058 119.966C136.453 125.299 132.412 129.885 128.559 134.189L111.267 153.278L111.173 153.185Z" fill="#D4CFC1"/>
<path d="M272.532 84.4048L282.118 59.4203C283.245 56.4259 284.467 53.4315 285.595 50.5306C282.681 49.8756 279.674 49.127 276.761 48.3784L253.267 42.5767L276.479 35.9329C282.494 34.2486 288.132 32.7514 293.677 31.4413C295.368 27.7919 296.966 24.3296 298.658 21.148L304.014 10.4805L309.935 20.8673C311.25 23.1131 312.566 25.3589 313.788 27.6983C319.238 26.8561 324.595 26.2947 329.764 25.9204L362.28 23.581L333.053 37.9916C329.482 39.7695 326.005 41.641 322.528 43.6996C323.655 45.8519 324.783 48.0041 325.817 50.1563L332.771 64.0055L318.017 59.046C314.164 57.7359 310.123 56.5194 305.518 55.303C301.195 58.6717 296.778 62.3211 292.361 66.2513L272.438 84.2177L272.532 84.4048Z" fill="#D4CFC1"/>
<path d="M107.04 224.953L90.7822 210.261C86.5532 206.425 82.2303 202.12 77.9074 197.535C73.5845 199.781 69.3555 201.652 65.2205 203.056L52.8156 207.173L57.1386 194.821C58.9241 189.862 60.6157 184.622 62.4012 179.288C57.7964 173.393 53.0036 167.03 48.3047 160.292L31.9528 136.805L56.8566 151.028C60.8976 153.368 65.0326 155.333 69.1676 157.017C70.5772 152.151 71.9869 147.098 73.4905 141.858L80.1628 117.528L85.8954 142.045C87.493 148.97 89.1846 155.801 90.7822 162.444C95.481 163.006 100.274 163.099 105.067 162.912L122.734 162.164L109.672 174.048C105.161 178.165 100.744 181.908 96.4208 185.183C98.0184 191.546 99.71 197.722 101.308 203.711L107.04 224.859V224.953Z" fill="#D4CFC1"/>
<path d="M394.704 131.754L374.969 109.67C370.928 105.178 366.793 100.967 362.564 97.1307C358.711 98.6279 354.858 100.499 351.005 102.558L335.029 111.354L341.983 94.5106C343.393 91.1419 344.802 87.7732 346.212 84.498C342.641 82.2522 338.976 80.1 335.311 78.2285L313.508 67.1866L337.942 66.0637C343.487 65.783 348.937 66.0637 354.294 66.6252C355.703 63.7244 357.113 60.8235 358.523 58.0163L364.913 45.29L370.27 58.4841C371.961 62.6015 373.653 66.9059 375.251 71.3975C381.359 73.4562 387.374 76.2634 393.2 79.5386L413.593 91.1419L390.099 91.5162C387.562 91.5162 384.93 91.7033 382.393 91.9841C383.615 95.6335 384.836 99.4701 386.058 103.4L394.798 131.66L394.704 131.754Z" fill="#D4CFC1"/>
<path d="M86.4586 309.541L67.8512 289.984C63.0584 284.931 58.2656 279.316 53.5667 273.327C48.8679 273.421 44.0751 273.047 39.4702 272.204L31.1063 270.614L34.9593 263.034C36.5569 259.853 38.1545 256.671 39.6582 253.489C34.8654 246.097 30.0725 238.05 25.3737 229.441L0 183.027L35.8051 222.048C39.8461 226.446 43.9811 230.47 48.1161 233.932C49.0559 231.593 49.9956 229.16 50.9354 226.727L58.2656 207.918L63.2463 227.476C65.0319 234.4 66.7235 241.138 68.4151 247.407C73.5838 249.84 78.8465 251.712 84.1092 252.928L101.871 256.952L85.5188 264.906C81.8537 266.684 78.1887 268.181 74.5236 269.397C75.9332 274.263 77.3428 279.035 78.7525 283.621L86.5526 309.447L86.4586 309.541Z" fill="#D4CFC1"/>
<path d="M416.971 237.867L395.732 202.683C391.315 195.384 386.898 188.647 382.576 182.377C379.098 183.126 375.527 184.249 371.862 185.746L358.424 191.267L363.31 177.698C365.002 173.113 366.693 168.528 368.291 164.13C363.968 159.077 359.551 154.492 355.228 150.374L338.219 134.279L361.055 139.426C366.13 140.549 371.11 142.233 376.091 144.292C377.313 141.391 378.535 138.584 379.756 135.777L386.992 119.214L391.785 136.712C393.571 143.076 395.356 149.907 397.236 156.925C403.626 161.697 409.923 167.499 416.031 174.143L434.263 193.887L409.077 184.436C407.385 183.781 405.6 183.219 403.814 182.751C405.036 187.711 406.258 192.764 407.479 197.911L416.971 237.867Z" fill="#D4CFC1"/>
<path d="M391.32 305.714L373.37 282.32C369.329 277.08 365.476 272.214 361.623 267.723C358.146 270.343 354.575 273.337 350.816 276.612L334.84 290.836L340.384 270.156C342.17 263.325 344.049 256.681 345.741 250.411C341.418 246.107 337.095 242.177 332.772 238.621L320.085 228.047L336.531 227.298C341.794 227.017 346.963 227.205 352.131 227.766C353.729 222.432 355.233 217.192 356.83 212.139L363.596 190.336L369.235 212.42C370.927 219.157 372.618 225.988 374.404 232.913C380.418 235.065 386.245 237.872 391.977 241.241L405.698 249.288L390.192 252.938C386.903 253.686 383.519 254.903 380.042 256.4C381.64 263.137 383.238 270.062 384.835 276.987L391.414 305.714H391.32Z" fill="#D4CFC1"/>
<path d="M107.792 371.496L90.8763 362.045C86.0834 359.331 81.3846 356.337 76.8737 353.061C72.3629 354.371 67.758 355.307 63.1531 356.056L50.2783 358.114L56.4807 346.698C57.8904 344.172 59.2061 341.645 60.5217 339.212C56.1048 334.908 51.688 330.135 47.459 325.082L23.6829 296.542L55.729 315.538C60.0519 318.064 64.4688 320.216 68.8857 321.994C70.1074 319.281 71.3291 316.567 72.4568 313.853L79.0352 298.694L84.3918 314.321C85.8955 318.813 87.4931 323.117 88.9967 327.235C93.7896 327.796 98.7703 328.077 103.845 327.796L129.313 326.673L107.51 339.68C103.845 341.832 100.086 343.891 96.4208 345.669C97.6425 348.476 98.7703 351.283 99.992 353.904L107.886 371.589L107.792 371.496Z" fill="#D4CFC1"/>
<path d="M105.723 407.424L116.155 389.457C117 387.96 117.846 386.463 118.786 384.872C115.497 383.843 112.583 382.813 109.67 381.69L82.3229 371.491L111.456 369.245C116.624 368.871 121.981 368.216 127.432 367.28C128.935 363.817 130.533 360.168 132.131 356.425L137.487 343.512L143.878 355.957C145.099 358.297 146.321 360.636 147.543 362.975C152.242 361.759 157.034 360.355 162.109 358.764L192.652 349.126L168.124 369.713C164.177 373.081 160.136 376.169 156.095 379.164L166.808 399.189L151.866 394.604C147.449 393.294 143.126 391.984 138.709 390.767C134.104 393.481 129.311 396.007 124.518 398.347L105.723 407.33V407.424Z" fill="#D4CFC1"/>
<path d="M273.473 383.561L285.032 336.212C280.991 333.405 276.95 330.785 273.003 328.446L260.504 321.147L274.318 316.842C280.145 315.064 285.502 313.474 290.858 312.07C292.644 304.678 294.429 297.285 296.215 289.986L302.229 265.376L308.714 289.893C310.217 295.601 311.721 301.496 313.225 307.485C318.206 306.736 322.998 306.175 327.791 305.8L344.519 304.49L332.96 316.655C328.825 320.96 324.408 325.732 319.145 331.627C320.837 338.926 322.622 346.506 324.314 354.366L329.013 375.42L313.601 360.355C309.936 356.799 306.364 353.43 302.887 350.342C298.94 354.927 294.899 359.513 290.952 364.004L273.66 383.655L273.473 383.561Z" fill="#D4CFC1"/>
<path d="M190.205 415.75L197.63 395.444C199.039 391.514 200.543 387.303 202.046 382.999C198.757 381.595 195.374 380.379 191.803 379.162L172.162 372.425L192.179 366.904C197.724 365.407 203.174 363.816 208.719 362.225C210.41 356.891 212.102 351.183 213.887 345.195L219.432 326.479L226.104 344.727C227.514 348.47 228.83 352.213 230.145 356.049C234.844 354.739 239.543 353.336 244.148 352.119L266.045 346.037L250.632 362.599C245.84 367.746 241.423 372.331 237.006 376.636C238.603 381.782 240.201 387.023 241.799 392.263L247.061 409.855L231.931 399.375C228.172 396.754 224.413 394.321 220.56 392.076C216.143 395.912 211.82 399.468 207.497 402.65L190.111 415.657L190.205 415.75Z" fill="#D4CFC1"/>
</svg>
