<svg width="387" height="387" viewBox="0 0 387 387" fill="none" xmlns="http://www.w3.org/2000/svg">
<path fill-rule="evenodd" clip-rule="evenodd" d="M340.279 67.1531C369.438 101.16 385.779 144.235 386.579 188.92C386.628 191.69 384.357 193.919 381.586 193.896L91.7931 193.896C80.6683 193.896 70 196.378 60.6425 200.735C38.3532 211.112 34.3238 239.568 44.6849 261.865C61.474 297.994 90.7746 326.825 127.171 343.029C163.567 359.232 204.599 361.712 242.682 350.01C261.234 344.31 278.476 335.432 293.71 323.912C307.345 313.43 319.309 300.833 329.119 286.537C345.41 262.796 355.11 237.385 357.405 208.691H385.111C382.432 242.227 371.005 274.475 351.969 302.217C351.666 302.658 351.361 303.098 351.055 303.537C350.758 304.122 350.411 304.692 350.011 305.244L349.841 305.477C324.971 340.501 289.042 366.295 247.693 378.602C203.227 391.837 155.478 388.587 113.215 369.448C70.9522 350.309 37.0124 316.566 17.6281 274.415C-1.75635 232.264 -5.28409 184.535 7.69264 139.992C19.8544 98.247 45.7477 61.9264 81.0477 36.8306C84.0083 34.6761 87.0368 32.6014 90.1306 30.6101C129.207 5.4588 176.067 -4.69662 222.05 2.02082C268.033 8.73826 310.03 31.8744 340.279 67.1531ZM34.0357 153.236C31.8645 162.124 36.077 172.227 45.2264 172.227H116.671C133.12 172.227 149.243 167.64 163.23 158.981L231.546 116.687C267.964 92.629 269.999 39.5116 227.233 30.7817C224.206 30.1638 221.155 29.6295 218.083 29.1808C178.661 23.4218 138.487 32.1282 104.986 53.6907C71.4855 75.2532 46.9228 108.214 35.838 146.481C35.1884 148.724 34.5877 150.976 34.0357 153.236ZM315.516 80.6041C314.653 79.6675 313.15 79.7835 312.087 80.4855L239.192 128.641L239.103 128.696C218.96 141.166 227.797 172.227 251.487 172.227H320.097C346.356 172.227 352.345 138.594 340.086 115.372C334.394 104.592 327.487 94.4029 319.442 85.0195C318.158 83.522 316.849 82.05 315.516 80.6041Z" fill="#D4CFC1"/>
</svg>
