<svg width="322" height="414" viewBox="0 0 322 414" fill="none" xmlns="http://www.w3.org/2000/svg">
<path d="M313.051 163.011C313.051 163.011 364.674 307.401 208.722 376.551C214.703 389.272 239.691 380.975 239.691 380.975C239.691 380.975 213.609 426.892 172.313 409.185C224.775 357.298 118.841 338.488 142.448 400.705C116.1 378.347 95.9782 388.223 83.7179 404.62C83.7179 404.62 109.046 357.633 57.5612 352.679C86.5121 342.782 80.3182 315.33 78.7777 313.08C77.2265 310.83 143.426 341.246 153.54 253.189C146.443 244.016 124.483 255.266 129.848 259.03C129.848 259.03 113.933 257.71 86.5439 276.174C135.585 249.425 137.986 236.228 46.9371 270.895C46.9371 270.895 59.8879 263.172 145.019 198.544C174.809 152.011 104.308 145.034 116.706 185.921C116.706 185.921 106.995 167.176 76.8228 181.681C76.8228 181.681 97.9118 162.752 68.3129 143.152C102.172 145.012 92.6422 112.606 92.6422 112.606C131.165 165.445 210.432 32.3148 87.5745 97.7441C-11.5277 170.55 9.56124 254.389 9.56124 254.389L8.19073 250.236C8.19073 250.236 -43.4321 105.846 112.52 36.6955C106.539 23.9753 81.5506 32.2716 81.5506 32.2716C81.5506 32.2716 107.633 -13.6447 148.929 4.06202C96.4669 55.949 202.4 74.759 178.794 12.5422C205.141 34.9 225.264 25.0245 237.524 8.6266C237.524 8.6266 212.196 55.6137 263.681 60.5677C234.73 70.4648 240.924 97.9172 242.464 100.167C244.015 102.417 177.816 72.0008 167.702 160.058C174.799 169.231 196.759 157.982 191.394 154.217C191.394 154.217 207.309 155.537 234.698 137.073C185.657 163.822 183.256 177.019 274.305 142.352C274.305 142.352 261.354 150.075 176.222 214.704C146.432 261.236 216.934 268.213 204.536 227.326C204.536 227.326 214.246 246.071 244.419 231.566C244.419 231.566 223.33 250.495 252.929 270.095C219.07 268.235 228.6 300.641 228.6 300.641C190.076 247.802 110.81 380.932 233.667 315.503C332.791 242.697 311.691 158.858 311.691 158.858L313.062 163.011H313.051Z" fill="#D4CFC1"/>
</svg>
