<svg width="420" height="414" viewBox="0 0 420 414" fill="none" xmlns="http://www.w3.org/2000/svg">
<path d="M209.67 0L203.002 20.5835H180.996L198.81 33.3889L191.951 53.9725L209.67 41.1671L227.293 53.9725L220.53 33.1992L238.249 20.6784H216.434L209.67 0Z" fill="#D4CFC1"/>
<path d="M119.175 24.0928L112.506 44.6763H90.5962L108.41 57.4817L101.551 78.0653L119.175 65.2598L136.798 78.0653L130.035 57.292L147.849 44.7712H125.938L119.175 24.0928Z" fill="#D4CFC1"/>
<path d="M300.076 24.0928L293.408 44.6763H271.497L289.311 57.4817L282.452 78.0653L300.076 65.2598L317.795 78.0653L311.031 57.292L328.75 44.7712H306.84L300.076 24.0928Z" fill="#D4CFC1"/>
<path d="M53.0614 90.0176L46.393 110.696H24.3875L42.2015 123.501L35.3426 144.085L53.0614 131.279L70.6849 144.085L63.9213 123.312L81.64 110.791H59.825L53.0614 90.0176Z" fill="#D4CFC1"/>
<path d="M366.187 90.0176L359.518 110.696H337.608L355.422 123.501L348.563 144.085L366.187 131.279L383.81 144.085L377.046 123.312L394.86 110.791H372.95L366.187 90.0176Z" fill="#D4CFC1"/>
<path d="M28.6739 179.94L22.0055 200.524H0L17.9093 213.329L11.0504 233.913L28.6739 221.202L46.2973 233.913L39.5337 213.235L57.2525 200.619H35.4375L28.6739 179.94Z" fill="#D4CFC1"/>
<path d="M390.574 179.94L383.906 200.524H361.995L379.809 213.329L372.95 233.913L390.574 221.202L408.293 233.913L401.529 213.235L419.248 200.619H397.338L390.574 179.94Z" fill="#D4CFC1"/>
<path d="M366.187 269.769L359.518 290.352H337.608L355.422 303.158L348.563 323.741L366.187 310.936L383.81 323.741L377.046 302.968L394.86 290.447H372.95L366.187 269.769Z" fill="#D4CFC1"/>
<path d="M53.0614 269.769L46.393 290.352H24.3875L42.2015 303.158L35.3426 323.741L53.0614 310.936L70.6849 323.741L63.9213 302.968L81.64 290.447H59.825L53.0614 269.769Z" fill="#D4CFC1"/>
<path d="M119.175 335.979L112.506 356.562H90.5962L108.41 369.367L101.551 389.951L119.175 377.146L136.798 389.951L130.035 369.178L147.849 356.657H125.938L119.175 335.979Z" fill="#D4CFC1"/>
<path d="M300.076 335.979L293.408 356.562H271.497L289.311 369.367L282.452 389.951L300.076 377.146L317.795 389.951L311.031 369.178L328.75 356.657H306.84L300.076 335.979Z" fill="#D4CFC1"/>
<path d="M209.67 359.976L203.002 380.559H180.996L198.81 393.365L191.951 413.948L209.67 401.143L227.293 413.948L220.53 393.175L238.249 380.654H216.434L209.67 359.976Z" fill="#D4CFC1"/>
</svg>
