<svg width="1121" height="501" viewBox="0 0 1121 501" fill="none" xmlns="http://www.w3.org/2000/svg">
<path d="M1120.79 0.828125H0V500.828H1120.79V0.828125Z" fill="black"/>
<path d="M49.4271 77.1199C49.4271 70.0906 51.2719 64.6515 54.9933 60.8347C58.7148 56.986 63.8039 55.0776 70.3244 55.0776C76.8448 55.0776 81.9339 56.986 85.6553 60.8347C89.3768 64.6515 91.2216 70.0906 91.2216 77.1199V106.287H124.397V77.1199C124.397 70.0906 126.241 64.6515 129.963 60.8347C133.684 56.986 138.773 55.0776 145.294 55.0776C151.814 55.0776 156.903 56.986 160.625 60.8347C164.346 64.6515 166.191 70.0906 166.191 77.1199V106.287H199.366V72.6351C199.366 58.0675 195.358 46.6805 187.374 38.5061C179.391 30.2998 168.608 26.2285 155.09 26.2285C147.425 26.2285 140.332 28.1051 133.811 31.8902C127.323 35.6752 122.17 40.5417 118.385 46.5215C114.727 40.001 109.702 35.0073 103.245 31.4767C96.8196 27.9779 89.4722 26.2285 81.2978 26.2285C74.3956 26.2285 68.2251 27.5644 62.7543 30.2044C57.2834 32.8762 52.8622 36.5022 49.4907 41.0506V27.4054H16.125V106.319H49.4907V77.1517L49.4271 77.1199Z" fill="#E6E7E1"/>
<path d="M240.782 101.911C236.551 97.2357 234.452 90.5244 234.452 81.8092C234.452 73.0941 236.615 66.2237 240.877 61.6117C245.171 56.9997 250.578 54.6778 257.067 54.6778C263.555 54.6778 268.804 56.9997 273.161 61.7071C277.519 66.3828 279.682 73.0941 279.682 81.8092C279.682 90.5244 277.423 97.2039 272.938 101.911C271.189 103.724 269.312 105.187 267.309 106.301H308.722C311.998 99.0169 313.652 90.8425 313.652 81.841C313.652 70.6449 311.171 60.7847 306.241 52.2604C301.279 43.7361 294.536 37.2156 285.948 32.6354C277.36 28.087 267.722 25.7969 257.067 25.7969C246.411 25.7969 236.774 28.0552 228.186 32.6354C219.598 37.1838 212.823 43.7361 207.893 52.2604C202.931 60.7847 200.482 70.6449 200.482 81.841C200.482 90.9061 202.072 99.0805 205.221 106.301H246.157C244.185 105.187 242.404 103.724 240.75 101.911H240.782Z" fill="#E6E7E1"/>
<path d="M349.178 77.1199C349.178 70.0906 351.023 64.6515 354.744 60.8347C358.466 56.986 363.555 55.0776 370.075 55.0776C376.596 55.0776 381.685 56.986 385.406 60.8347C389.128 64.6515 390.973 70.0906 390.973 77.1199V106.287H424.147V77.1199C424.147 70.0906 425.992 64.6515 429.714 60.8347C433.435 56.986 438.524 55.0776 445.045 55.0776C451.565 55.0776 456.654 56.986 460.376 60.8347C464.097 64.6515 465.942 70.0906 465.942 77.1199V106.287H499.117V72.6351C499.117 58.0675 495.109 46.6805 487.126 38.5061C479.142 30.2998 468.359 26.2285 454.841 26.2285C447.176 26.2285 440.083 28.1051 433.562 31.8902C427.074 35.6752 421.921 40.5417 418.136 46.5215C414.478 40.001 409.453 35.0073 402.996 31.4767C396.571 27.9779 389.223 26.2285 381.049 26.2285C374.147 26.2285 367.976 27.5644 362.505 30.2044C357.035 32.8762 352.613 36.5022 349.242 41.0506V27.4054H315.876V106.319H349.242V77.1517L349.178 77.1199Z" fill="#E6E7E1"/>
<path d="M539.926 105.347C536.077 101.784 533.914 96.5996 533.405 89.8246H608.915C609.297 86.4531 609.52 83.2088 609.52 80.0598C609.52 69.1182 607.198 59.576 602.586 51.3698C597.974 43.1636 591.58 36.8658 583.374 32.4446C575.168 28.0234 565.817 25.7969 555.289 25.7969C544.76 25.7969 534.932 28.0552 526.598 32.6354C518.265 37.1838 511.808 43.7043 507.196 52.165C502.584 60.6257 500.262 70.5177 500.262 81.841C500.262 90.9061 501.789 99.0805 504.811 106.301H541.23C540.816 105.983 540.371 105.696 539.989 105.347H539.926ZM540.721 57.445C544.569 54.2006 549.277 52.5467 554.875 52.5467C560.473 52.5467 565.626 54.2325 569.506 57.6358C573.418 61.0074 575.359 65.5876 575.359 71.2811H533.596C534.487 65.3013 536.872 60.6893 540.721 57.445Z" fill="#E6E7E1"/>
<path d="M606.946 100.152H571.418C570.273 102.633 568.778 104.669 566.965 106.291H604.879C605.674 104.319 606.374 102.283 606.915 100.152H606.946Z" fill="#E6E7E1"/>
<path d="M644.566 77.1322C644.566 69.8484 646.443 64.1867 650.228 60.1472C654.013 56.1077 659.071 54.1038 665.464 54.1038C671.857 54.1038 676.914 56.1077 680.699 60.1472C684.484 64.1867 686.361 69.8484 686.361 77.1322V106.299H719.536V72.6474C719.536 58.207 715.719 46.8518 708.117 38.582C700.515 30.3121 690.337 26.209 677.582 26.209C670.426 26.209 663.969 27.6085 658.275 30.4075C652.55 33.2066 648.001 37.0234 644.598 41.8263V27.3859H611.232V106.299H644.598V77.1322H644.566Z" fill="#E6E7E1"/>
<path d="M768.111 105.823C766.552 104.392 765.757 102.07 765.757 98.7941V55.0593H787.609V27.3553H765.757V0.828125H732.391V27.3553H719.128V55.0593H732.391V98.3806C732.391 101.18 732.582 103.788 732.868 106.269H768.811C768.588 106.11 768.302 105.983 768.111 105.792V105.823Z" fill="#E6E7E1"/>
<path d="M824.411 101.911C820.18 97.2357 818.049 90.5244 818.049 81.8092C818.049 73.0941 820.212 66.2237 824.474 61.6117C828.768 56.9997 834.175 54.6778 840.664 54.6778C847.153 54.6778 852.401 56.9997 856.758 61.7071C861.116 66.3828 863.279 73.0941 863.279 81.8092C863.279 90.5244 861.02 97.2039 856.536 101.911C854.786 103.724 852.91 105.187 850.906 106.301H892.319C895.595 99.0169 897.249 90.8425 897.249 81.841C897.249 70.6449 894.768 60.7847 889.838 52.2604C884.876 43.7361 878.133 37.2156 869.545 32.6354C860.957 28.087 851.319 25.7969 840.664 25.7969C830.009 25.7969 820.371 28.0552 811.783 32.6354C803.195 37.1838 796.42 43.7361 791.49 52.2604C786.528 60.7847 784.079 70.6449 784.079 81.841C784.079 90.9061 785.669 99.0805 788.818 106.301H829.754C827.782 105.187 826.001 103.724 824.347 101.911H824.411Z" fill="#E6E7E1"/>
<path d="M938.182 103.501C934.397 99.4617 932.52 93.8 932.52 86.5162V27.3867H899.345V91.001C899.345 96.5354 900.013 101.593 901.222 106.3H941.522C940.313 105.505 939.2 104.583 938.182 103.501Z" fill="#E6E7E1"/>
<path d="M1007.87 27.3867H974.505V86.5162C974.505 93.8 972.629 99.4617 968.844 103.501C967.826 104.583 966.713 105.505 965.472 106.3H1007.87V27.3867Z" fill="#E6E7E1"/>
<path d="M1104.66 104.644C1104.53 97.1054 1102.53 91.0939 1098.71 86.6091C1094.86 82.1242 1090.41 78.8481 1085.35 76.8443C1080.26 74.8404 1073.71 72.7729 1065.63 70.7055C1058.6 69.1469 1053.45 67.5884 1050.11 66.0298C1046.8 64.4713 1045.15 62.1494 1045.15 59.0005C1045.15 56.3923 1046.2 54.3566 1048.26 52.8617C1050.33 51.3667 1053.35 50.6352 1057.23 50.6352C1061.78 50.6352 1065.47 51.7166 1068.24 53.9431C1071.04 56.1696 1072.69 59.1595 1073.23 62.9445H1104.05C1102.88 51.7484 1098.36 42.7788 1090.5 36.0039C1082.62 29.229 1071.86 25.8574 1058.22 25.8574C1048.96 25.8574 1041.01 27.3524 1034.3 30.3422C1027.59 33.3321 1022.53 37.4034 1019.06 42.5244C1015.63 47.6453 1013.88 53.3706 1013.88 59.6048C1013.88 67.0159 1015.76 72.9002 1019.54 77.2577C1023.33 81.6153 1027.81 84.796 1033 86.8317C1038.18 88.8674 1044.7 90.7758 1052.53 92.5888C1059.81 94.4018 1065.09 96.0876 1068.33 97.5825C1071.58 99.0774 1073.2 101.368 1073.2 104.516C1073.2 105.153 1073.14 105.789 1072.98 106.361H1104.5C1104.5 105.821 1104.63 105.28 1104.63 104.707L1104.66 104.644Z" fill="#E6E7E1"/>
<path d="M1043.37 100.531H1010.38C1010.54 102.503 1010.86 104.412 1011.31 106.288H1045.44C1044.32 104.603 1043.59 102.694 1043.37 100.531Z" fill="#E6E7E1"/>
</svg>
